# xmcd
#
# Track frame offsets:
#	150
#	15735
#	34135
#	49664
#	65593
#	84312
#	99889
#	118361
#	136666
#	153846
#	180173
#	196078
#	212789
#	228696
#	249738
#	277401
#
# Disc length: 3704 seconds
#
# Revision: 1
# Processed by: cddbd v1.5.1PL0 Copyright (c) Steve Scherf et al.
# Submitted via: audiograbber 1.83.01
#
DISCID=da0e7610
DTITLE=060 - Country Best of Winter 2005 Vol 1 - Karaoke Country Best of Winter
DTITLE=2005 Vol. 1
DYEAR=2005
DGENRE=KARAOKE
TTITLE0=Alan Jackson - Monday Morning Church
TTITLE1=Big and Rich - Holy Water
TTITLE2=Blake Shelton - Some Beach
TTITLE3=Brooks and Dunn - That's What It's All About
TTITLE4=Gretchen Wilson - When I Think About Cheatin'
TTITLE5=Jamie O'Neal - Trying To Find Atlantis
TTITLE6=Keith Urban - You're My Better Half
TTITLE7=Kenny Chesney - The Woman With You
TTITLE8=Lee Ann Womack - I May Hate Myself In The Morning
TTITLE9=Martina McBride - God's Will
TTITLE10=Montgomery Gentry - If You Ever Stop Loving Me
TTITLE11=Reba McEntire - He Gets That From Me
TTITLE12=Shania Twain (with Billy Currington) - Party For Two
TTITLE13=Tim McGraw - Back When
TTITLE14=Toby Keith - Stay In Mexico
TTITLE15=Data Track - Data Track
EXTD=
EXTT0=
EXTT1=
EXTT2=
EXTT3=
EXTT4=
EXTT5=
EXTT6=
EXTT7=
EXTT8=
EXTT9=
EXTT10=
EXTT11=
EXTT12=
EXTT13=
EXTT14=
EXTT15=
PLAYORDER=
